<?xml version="1.0" encoding="UTF-8" standalone="no"?>
<!DOCTYPE svg PUBLIC "-//W3C//DTD SVG 1.1//EN"
 "http://www.w3.org/Graphics/SVG/1.1/DTD/svg11.dtd">
<!-- Generated by graphviz version 2.43.0 (0)
 -->
<!-- Title: %3 Pages: 1 -->
<svg width="314pt" height="239pt"
 viewBox="0.00 0.00 314.00 239.00" xmlns="http://www.w3.org/2000/svg" xmlns:xlink="http://www.w3.org/1999/xlink">
<g id="graph0" class="graph" transform="scale(1 1) rotate(0) translate(4 235)">
<title>%3</title>
<!-- Data: nil\nLock: nil -->
<g id="node1" class="node">
<title>Data: nil\nLock: nil</title>
<polygon fill="none" stroke="black" points="91,-198 0,-198 0,-160 91,-160 91,-198"/>
<text text-anchor="middle" x="45.5" y="-182.8" font-family="Fira Code" font-size="14.00">Data: nil</text>
<text text-anchor="middle" x="45.5" y="-167.8" font-family="Fira Code" font-size="14.00">Lock: nil</text>
</g>
<!-- Data: nil\nLock: nil&#45;&gt;Data: nil\nLock: nil -->
<g id="edge1" class="edge">
<title>Data: nil\nLock: nil:n&#45;&gt;Data: nil\nLock: nil:n</title>
<path fill="none" stroke="black" stroke-dasharray="1,5" d="M45.5,-198C54.5,-204 54.5,-216 45.5,-216 39.73,-216 37.66,-211.08 39.28,-205.96"/>
<polygon fill="black" stroke="black" points="42.1,-208.04 45.5,-198 36.59,-203.73 42.1,-208.04"/>
<text text-anchor="middle" x="45.5" y="-219.8" font-family="Fira Code" font-size="14.00">GET</text>
</g>
<!-- Data: ...\nLock: nil -->
<g id="node2" class="node">
<title>Data: ...\nLock: nil</title>
<polygon fill="none" stroke="black" points="254,-198 163,-198 163,-160 254,-160 254,-198"/>
<text text-anchor="middle" x="208.5" y="-182.8" font-family="Fira Code" font-size="14.00">Data: ...</text>
<text text-anchor="middle" x="208.5" y="-167.8" font-family="Fira Code" font-size="14.00">Lock: nil</text>
</g>
<!-- Data: nil\nLock: nil&#45;&gt;Data: ...\nLock: nil -->
<g id="edge2" class="edge">
<title>Data: nil\nLock: nil&#45;&gt;Data: ...\nLock: nil</title>
<path fill="none" stroke="black" d="M91.34,-164.57C97.55,-163.1 103.9,-161.84 110,-161 124.97,-158.95 129.03,-158.95 144,-161 146.86,-161.39 149.78,-161.88 152.7,-162.43"/>
<polygon fill="black" stroke="black" points="152.15,-165.9 162.66,-164.57 153.62,-159.05 152.15,-165.9"/>
<text text-anchor="middle" x="127" y="-164.8" font-family="Fira Code" font-size="14.00">POST</text>
</g>
<!-- Data: nil\nLock: ... -->
<g id="node3" class="node">
<title>Data: nil\nLock: ...</title>
<polygon fill="none" stroke="black" points="91,-71 0,-71 0,-33 91,-33 91,-71"/>
<text text-anchor="middle" x="45.5" y="-55.8" font-family="Fira Code" font-size="14.00">Data: nil</text>
<text text-anchor="middle" x="45.5" y="-40.8" font-family="Fira Code" font-size="14.00">Lock: ...</text>
</g>
<!-- Data: nil\nLock: nil&#45;&gt;Data: nil\nLock: ... -->
<g id="edge3" class="edge">
<title>Data: nil\nLock: nil&#45;&gt;Data: nil\nLock: ...</title>
<path fill="none" stroke="black" d="M36.05,-159.8C29.89,-145.8 23.5,-125.88 26.5,-108 28.03,-98.91 30.88,-89.3 33.92,-80.71"/>
<polygon fill="black" stroke="black" points="37.26,-81.78 37.51,-71.18 30.71,-79.31 37.26,-81.78"/>
<text text-anchor="middle" x="43.5" y="-111.8" font-family="Fira Code" font-size="14.00">LOCK</text>
</g>
<!-- Data: ...\nLock: nil&#45;&gt;Data: nil\nLock: nil -->
<g id="edge6" class="edge">
<title>Data: ...\nLock: nil&#45;&gt;Data: nil\nLock: nil</title>
<path fill="none" stroke="black" d="M162.72,-179C143.73,-179 121.5,-179 101.54,-179"/>
<polygon fill="black" stroke="black" points="101.34,-175.5 91.34,-179 101.34,-182.5 101.34,-175.5"/>
<text text-anchor="middle" x="127" y="-185.8" font-family="Fira Code" font-size="14.00">DELETE</text>
</g>
<!-- Data: ...\nLock: nil&#45;&gt;Data: ...\nLock: nil -->
<g id="edge4" class="edge">
<title>Data: ...\nLock: nil:n&#45;&gt;Data: ...\nLock: nil:n</title>
<path fill="none" stroke="black" stroke-dasharray="1,5" d="M208.5,-198C217.5,-204 217.5,-216 208.5,-216 202.73,-216 200.66,-211.08 202.28,-205.96"/>
<polygon fill="black" stroke="black" points="205.1,-208.04 208.5,-198 199.59,-203.73 205.1,-208.04"/>
<text text-anchor="middle" x="208.5" y="-219.8" font-family="Fira Code" font-size="14.00">GET</text>
</g>
<!-- Data: ...\nLock: nil&#45;&gt;Data: ...\nLock: nil -->
<g id="edge5" class="edge">
<title>Data: ...\nLock: nil&#45;&gt;Data: ...\nLock: nil</title>
<path fill="none" stroke="black" stroke-dasharray="5,2" d="M254.16,-185.59C264.47,-184.99 272,-182.8 272,-179 272,-176.63 269.06,-174.88 264.33,-173.76"/>
<polygon fill="black" stroke="black" points="264.54,-170.25 254.16,-172.41 263.62,-177.19 264.54,-170.25"/>
<text text-anchor="middle" x="289" y="-175.3" font-family="Fira Code" font-size="14.00">POST</text>
</g>
<!-- Data: ...\nLock: ... -->
<g id="node4" class="node">
<title>Data: ...\nLock: ...</title>
<polygon fill="none" stroke="black" points="254,-71 163,-71 163,-33 254,-33 254,-71"/>
<text text-anchor="middle" x="208.5" y="-55.8" font-family="Fira Code" font-size="14.00">Data: ...</text>
<text text-anchor="middle" x="208.5" y="-40.8" font-family="Fira Code" font-size="14.00">Lock: ...</text>
</g>
<!-- Data: ...\nLock: nil&#45;&gt;Data: ...\nLock: ... -->
<g id="edge7" class="edge">
<title>Data: ...\nLock: nil&#45;&gt;Data: ...\nLock: ...</title>
<path fill="none" stroke="black" d="M198.72,-159.75C193.68,-149.31 188.07,-135.79 185.5,-123 182.61,-108.61 186.93,-93.05 192.58,-80.27"/>
<polygon fill="black" stroke="black" points="195.82,-81.62 197.06,-71.1 189.53,-78.55 195.82,-81.62"/>
<text text-anchor="middle" x="202.5" y="-111.8" font-family="Fira Code" font-size="14.00">LOCK</text>
</g>
<!-- Data: nil\nLock: ...&#45;&gt;Data: nil\nLock: nil -->
<g id="edge10" class="edge">
<title>Data: nil\nLock: ...&#45;&gt;Data: nil\nLock: nil</title>
<path fill="none" stroke="black" d="M51.74,-71.08C55.07,-81.69 58.82,-95.44 60.5,-108 62.37,-122 59.63,-137.36 56,-150.12"/>
<polygon fill="black" stroke="black" points="52.64,-149.12 52.97,-159.71 59.32,-151.23 52.64,-149.12"/>
<text text-anchor="middle" x="86.5" y="-111.8" font-family="Fira Code" font-size="14.00">UNLOCK</text>
</g>
<!-- Data: nil\nLock: ...&#45;&gt;Data: nil\nLock: ... -->
<g id="edge8" class="edge">
<title>Data: nil\nLock: ...:s&#45;&gt;Data: nil\nLock: ...:s</title>
<path fill="none" stroke="black" stroke-dasharray="1,5" d="M45.5,-33C54.5,-27 54.5,-15 45.5,-15 39.73,-15 37.66,-19.92 39.28,-25.04"/>
<polygon fill="black" stroke="black" points="36.59,-27.27 45.5,-33 42.1,-22.96 36.59,-27.27"/>
<text text-anchor="middle" x="45.5" y="-3.8" font-family="Fira Code" font-size="14.00">GET</text>
</g>
<!-- Data: nil\nLock: ...&#45;&gt;Data: ...\nLock: ... -->
<g id="edge9" class="edge">
<title>Data: nil\nLock: ...&#45;&gt;Data: ...\nLock: ...</title>
<path fill="none" stroke="black" d="M91.34,-52C110.34,-52 132.57,-52 152.52,-52"/>
<polygon fill="black" stroke="black" points="152.72,-55.5 162.72,-52 152.72,-48.5 152.72,-55.5"/>
<text text-anchor="middle" x="127" y="-58.8" font-family="Fira Code" font-size="14.00">POST</text>
</g>
<!-- Data: ...\nLock: ...&#45;&gt;Data: ...\nLock: nil -->
<g id="edge13" class="edge">
<title>Data: ...\nLock: ...&#45;&gt;Data: ...\nLock: nil</title>
<path fill="none" stroke="black" d="M213.9,-71.06C217.5,-85.15 221.26,-105.25 219.5,-123 218.63,-131.82 216.98,-141.32 215.23,-149.9"/>
<polygon fill="black" stroke="black" points="211.78,-149.29 213.08,-159.8 218.62,-150.77 211.78,-149.29"/>
<text text-anchor="middle" x="244.5" y="-111.8" font-family="Fira Code" font-size="14.00">UNLOCK</text>
</g>
<!-- Data: ...\nLock: ...&#45;&gt;Data: nil\nLock: ... -->
<g id="edge14" class="edge">
<title>Data: ...\nLock: ...&#45;&gt;Data: nil\nLock: ...</title>
<path fill="none" stroke="black" d="M162.66,-37.57C156.45,-36.1 150.1,-34.84 144,-34 129.03,-31.95 124.97,-31.95 110,-34 107.14,-34.39 104.22,-34.88 101.3,-35.43"/>
<polygon fill="black" stroke="black" points="100.38,-32.05 91.34,-37.57 101.85,-38.9 100.38,-32.05"/>
<text text-anchor="middle" x="127" y="-37.8" font-family="Fira Code" font-size="14.00">POST</text>
</g>
<!-- Data: ...\nLock: ...&#45;&gt;Data: ...\nLock: ... -->
<g id="edge11" class="edge">
<title>Data: ...\nLock: ...:s&#45;&gt;Data: ...\nLock: ...:s</title>
<path fill="none" stroke="black" stroke-dasharray="1,5" d="M208.5,-33C217.5,-27 217.5,-15 208.5,-15 202.73,-15 200.66,-19.92 202.28,-25.04"/>
<polygon fill="black" stroke="black" points="199.59,-27.27 208.5,-33 205.1,-22.96 199.59,-27.27"/>
<text text-anchor="middle" x="208.5" y="-3.8" font-family="Fira Code" font-size="14.00">GET</text>
</g>
<!-- Data: ...\nLock: ...&#45;&gt;Data: ...\nLock: ... -->
<g id="edge12" class="edge">
<title>Data: ...\nLock: ...:e&#45;&gt;Data: ...\nLock: ...:e</title>
<path fill="none" stroke="black" stroke-dasharray="5,2" d="M254.5,-52C260,-61 272,-61 272,-52 272,-46.38 267.31,-44.27 262.45,-45.67"/>
<polygon fill="black" stroke="black" points="260.15,-43.04 254.5,-52 264.5,-48.51 260.15,-43.04"/>
<text text-anchor="middle" x="289" y="-48.3" font-family="Fira Code" font-size="14.00">POST</text>
</g>
</g>
</svg>
