<?xml version="1.0" encoding="UTF-8" standalone="no"?>
<!DOCTYPE svg PUBLIC "-//W3C//DTD SVG 1.1//EN"
 "http://www.w3.org/Graphics/SVG/1.1/DTD/svg11.dtd">
<!-- Generated by graphviz version 2.43.0 (0)
 -->
<!-- Title: %3 Pages: 1 -->
<svg width="297pt" height="229pt"
 viewBox="0.00 0.00 297.00 229.00" xmlns="http://www.w3.org/2000/svg" xmlns:xlink="http://www.w3.org/1999/xlink">
<g id="graph0" class="graph" transform="scale(1 1) rotate(0) translate(4 225)">
<title>%3</title>
<polygon fill="#282828" stroke="transparent" points="-4,4 -4,-225 293,-225 293,4 -4,4"/>
<!-- Data: nil\nLock: nil -->
<g id="node1" class="node">
<title>Data: nil\nLock: nil</title>
<polygon fill="none" stroke="#e2e2e1" points="84,-190 0,-190 0,-154 84,-154 84,-190"/>
<text text-anchor="middle" x="42" y="-175.4" font-family="Fira Code" font-size="12.00" fill="#e1e1e1">Data: nil</text>
<text text-anchor="middle" x="42" y="-162.4" font-family="Fira Code" font-size="12.00" fill="#e1e1e1">Lock: nil</text>
</g>
<!-- Data: nil\nLock: nil&#45;&gt;Data: nil\nLock: nil -->
<g id="edge1" class="edge">
<title>Data: nil\nLock: nil:n&#45;&gt;Data: nil\nLock: nil:n</title>
<path fill="none" stroke="#e1e1e1" stroke-dasharray="1,5" d="M42,-190C51,-196 51,-208 42,-208 36.23,-208 34.16,-203.08 35.78,-197.96"/>
<polygon fill="#e1e1e1" stroke="#e1e1e1" points="38.6,-200.04 42,-190 33.09,-195.73 38.6,-200.04"/>
<text text-anchor="middle" x="42" y="-211.4" font-family="Fira Code" font-size="12.00" fill="#e1e1e1">GET</text>
</g>
<!-- Data: ...\nLock: nil -->
<g id="node2" class="node">
<title>Data: ...\nLock: nil</title>
<polygon fill="none" stroke="#e2e2e1" points="240,-190 156,-190 156,-154 240,-154 240,-190"/>
<text text-anchor="middle" x="198" y="-175.4" font-family="Fira Code" font-size="12.00" fill="#e1e1e1">Data: ...</text>
<text text-anchor="middle" x="198" y="-162.4" font-family="Fira Code" font-size="12.00" fill="#e1e1e1">Lock: nil</text>
</g>
<!-- Data: nil\nLock: nil&#45;&gt;Data: ...\nLock: nil -->
<g id="edge2" class="edge">
<title>Data: nil\nLock: nil&#45;&gt;Data: ...\nLock: nil</title>
<path fill="none" stroke="#e1e1e1" d="M84.08,-159.7C90.86,-158.17 97.83,-156.84 104.5,-156 118.17,-154.28 121.83,-154.28 135.5,-156 138.94,-156.43 142.46,-157 145.99,-157.65"/>
<polygon fill="#e1e1e1" stroke="#e1e1e1" points="145.41,-161.1 155.92,-159.7 146.83,-154.25 145.41,-161.1"/>
<text text-anchor="middle" x="120" y="-159.4" font-family="Fira Code" font-size="12.00" fill="#e1e1e1">POST</text>
</g>
<!-- Data: nil\nLock: ... -->
<g id="node3" class="node">
<title>Data: nil\nLock: ...</title>
<polygon fill="none" stroke="#e2e2e1" points="84,-67 0,-67 0,-31 84,-31 84,-67"/>
<text text-anchor="middle" x="42" y="-52.4" font-family="Fira Code" font-size="12.00" fill="#e1e1e1">Data: nil</text>
<text text-anchor="middle" x="42" y="-39.4" font-family="Fira Code" font-size="12.00" fill="#e1e1e1">Lock: ...</text>
</g>
<!-- Data: nil\nLock: nil&#45;&gt;Data: nil\nLock: ... -->
<g id="edge3" class="edge">
<title>Data: nil\nLock: nil&#45;&gt;Data: nil\nLock: ...</title>
<path fill="none" stroke="#e1e1e1" d="M34.71,-153.85C30.67,-143.41 26.06,-129.68 24,-117 21.81,-103.53 25.09,-88.86 29.42,-76.7"/>
<polygon fill="#e1e1e1" stroke="#e1e1e1" points="32.77,-77.73 33.2,-67.14 26.26,-75.15 32.77,-77.73"/>
<text text-anchor="middle" x="39.5" y="-107.4" font-family="Fira Code" font-size="12.00" fill="#e1e1e1">LOCK</text>
</g>
<!-- Data: ...\nLock: nil&#45;&gt;Data: nil\nLock: nil -->
<g id="edge6" class="edge">
<title>Data: ...\nLock: nil&#45;&gt;Data: nil\nLock: nil</title>
<path fill="none" stroke="#e1e1e1" d="M155.75,-172C136.84,-172 114.36,-172 94.39,-172"/>
<polygon fill="#e1e1e1" stroke="#e1e1e1" points="94.22,-168.5 84.22,-172 94.22,-175.5 94.22,-168.5"/>
<text text-anchor="middle" x="120" y="-178.4" font-family="Fira Code" font-size="12.00" fill="#e1e1e1">DELETE</text>
</g>
<!-- Data: ...\nLock: nil&#45;&gt;Data: ...\nLock: nil -->
<g id="edge4" class="edge">
<title>Data: ...\nLock: nil:n&#45;&gt;Data: ...\nLock: nil:n</title>
<path fill="none" stroke="#e1e1e1" stroke-dasharray="1,5" d="M198,-190C207,-196 207,-208 198,-208 192.23,-208 190.16,-203.08 191.78,-197.96"/>
<polygon fill="#e1e1e1" stroke="#e1e1e1" points="194.6,-200.04 198,-190 189.09,-195.73 194.6,-200.04"/>
<text text-anchor="middle" x="198" y="-211.4" font-family="Fira Code" font-size="12.00" fill="#e1e1e1">GET</text>
</g>
<!-- Data: ...\nLock: nil&#45;&gt;Data: ...\nLock: nil -->
<g id="edge5" class="edge">
<title>Data: ...\nLock: nil&#45;&gt;Data: ...\nLock: nil</title>
<path fill="none" stroke="#e1e1e1" stroke-dasharray="5,2" d="M240.06,-178.64C250.34,-178.15 258,-175.94 258,-172 258,-169.54 255.01,-167.75 250.25,-166.64"/>
<polygon fill="#e1e1e1" stroke="#e1e1e1" points="250.41,-163.13 240.06,-165.36 249.54,-170.07 250.41,-163.13"/>
<text text-anchor="middle" x="273.5" y="-168.9" font-family="Fira Code" font-size="12.00" fill="#e1e1e1">POST</text>
</g>
<!-- Data: ...\nLock: ... -->
<g id="node4" class="node">
<title>Data: ...\nLock: ...</title>
<polygon fill="none" stroke="#e2e2e1" points="240,-67 156,-67 156,-31 240,-31 240,-67"/>
<text text-anchor="middle" x="198" y="-52.4" font-family="Fira Code" font-size="12.00" fill="#e1e1e1">Data: ...</text>
<text text-anchor="middle" x="198" y="-39.4" font-family="Fira Code" font-size="12.00" fill="#e1e1e1">Lock: ...</text>
</g>
<!-- Data: ...\nLock: nil&#45;&gt;Data: ...\nLock: ... -->
<g id="edge7" class="edge">
<title>Data: ...\nLock: nil&#45;&gt;Data: ...\nLock: ...</title>
<path fill="none" stroke="#e1e1e1" d="M188.87,-153.54C183.99,-143.22 178.49,-129.72 176,-117 173.31,-103.25 177.42,-88.41 182.78,-76.2"/>
<polygon fill="#e1e1e1" stroke="#e1e1e1" points="186.01,-77.56 187.25,-67.04 179.72,-74.49 186.01,-77.56"/>
<text text-anchor="middle" x="191.5" y="-107.4" font-family="Fira Code" font-size="12.00" fill="#e1e1e1">LOCK</text>
</g>
<!-- Data: nil\nLock: ...&#45;&gt;Data: nil\nLock: nil -->
<g id="edge10" class="edge">
<title>Data: nil\nLock: ...&#45;&gt;Data: nil\nLock: nil</title>
<path fill="none" stroke="#e1e1e1" d="M48.35,-67.24C52.59,-80.71 57.02,-99.94 55,-117 53.95,-125.85 51.96,-135.35 49.85,-143.87"/>
<polygon fill="#e1e1e1" stroke="#e1e1e1" points="46.43,-143.12 47.27,-153.68 53.2,-144.9 46.43,-143.12"/>
<text text-anchor="middle" x="79" y="-107.4" font-family="Fira Code" font-size="12.00" fill="#e1e1e1">UNLOCK</text>
</g>
<!-- Data: nil\nLock: ...&#45;&gt;Data: nil\nLock: ... -->
<g id="edge8" class="edge">
<title>Data: nil\nLock: ...:s&#45;&gt;Data: nil\nLock: ...:s</title>
<path fill="none" stroke="#e1e1e1" stroke-dasharray="1,5" d="M42,-31C51,-25 51,-13 42,-13 36.23,-13 34.16,-17.92 35.78,-23.04"/>
<polygon fill="#e1e1e1" stroke="#e1e1e1" points="33.09,-25.27 42,-31 38.6,-20.96 33.09,-25.27"/>
<text text-anchor="middle" x="42" y="-3.4" font-family="Fira Code" font-size="12.00" fill="#e1e1e1">GET</text>
</g>
<!-- Data: nil\nLock: ...&#45;&gt;Data: ...\nLock: ... -->
<g id="edge9" class="edge">
<title>Data: nil\nLock: ...&#45;&gt;Data: ...\nLock: ...</title>
<path fill="none" stroke="#e1e1e1" d="M84.22,-49C103.12,-49 125.6,-49 145.57,-49"/>
<polygon fill="#e1e1e1" stroke="#e1e1e1" points="145.75,-52.5 155.75,-49 145.75,-45.5 145.75,-52.5"/>
<text text-anchor="middle" x="120" y="-55.4" font-family="Fira Code" font-size="12.00" fill="#e1e1e1">POST</text>
</g>
<!-- Data: ...\nLock: ...&#45;&gt;Data: ...\nLock: nil -->
<g id="edge13" class="edge">
<title>Data: ...\nLock: ...&#45;&gt;Data: ...\nLock: nil</title>
<path fill="none" stroke="#e1e1e1" d="M201.65,-67.42C203.68,-77.95 205.98,-91.69 207,-104 208.09,-117.21 206.47,-131.8 204.32,-143.99"/>
<polygon fill="#e1e1e1" stroke="#e1e1e1" points="200.85,-143.49 202.34,-153.98 207.71,-144.85 200.85,-143.49"/>
<text text-anchor="middle" x="230" y="-107.4" font-family="Fira Code" font-size="12.00" fill="#e1e1e1">UNLOCK</text>
</g>
<!-- Data: ...\nLock: ...&#45;&gt;Data: nil\nLock: ... -->
<g id="edge14" class="edge">
<title>Data: ...\nLock: ...&#45;&gt;Data: nil\nLock: ...</title>
<path fill="none" stroke="#e1e1e1" d="M155.92,-36.7C149.14,-35.17 142.17,-33.84 135.5,-33 121.83,-31.28 118.17,-31.28 104.5,-33 101.06,-33.43 97.54,-34 94.01,-34.65"/>
<polygon fill="#e1e1e1" stroke="#e1e1e1" points="93.17,-31.25 84.08,-36.7 94.59,-38.1 93.17,-31.25"/>
<text text-anchor="middle" x="120" y="-36.4" font-family="Fira Code" font-size="12.00" fill="#e1e1e1">POST</text>
</g>
<!-- Data: ...\nLock: ...&#45;&gt;Data: ...\nLock: ... -->
<g id="edge11" class="edge">
<title>Data: ...\nLock: ...:s&#45;&gt;Data: ...\nLock: ...:s</title>
<path fill="none" stroke="#e1e1e1" stroke-dasharray="1,5" d="M198,-31C207,-25 207,-13 198,-13 192.23,-13 190.16,-17.92 191.78,-23.04"/>
<polygon fill="#e1e1e1" stroke="#e1e1e1" points="189.09,-25.27 198,-31 194.6,-20.96 189.09,-25.27"/>
<text text-anchor="middle" x="198" y="-3.4" font-family="Fira Code" font-size="12.00" fill="#e1e1e1">GET</text>
</g>
<!-- Data: ...\nLock: ...&#45;&gt;Data: ...\nLock: ... -->
<g id="edge12" class="edge">
<title>Data: ...\nLock: ...:e&#45;&gt;Data: ...\nLock: ...:e</title>
<path fill="none" stroke="#e1e1e1" stroke-dasharray="5,2" d="M240,-49C246,-58 258,-58 258,-49 258,-43.23 253.08,-41.16 247.96,-42.78"/>
<polygon fill="#e1e1e1" stroke="#e1e1e1" points="245.73,-40.09 240,-49 250.04,-45.6 245.73,-40.09"/>
<text text-anchor="middle" x="273.5" y="-45.9" font-family="Fira Code" font-size="12.00" fill="#e1e1e1">POST</text>
</g>
</g>
</svg>
